<svg version="1.2" xmlns="http://www.w3.org/2000/svg" viewBox="0 0 1000 1600" width="1000" height="1600"><style>.a{fill:#fff}</style><path fill-rule="evenodd" class="a" d="m366 945.2c-0.6-6.8 0.1-13.6 2.3-20.1 2.1-6.5 5.6-12.5 10.2-17.5 4.6-5.1 10.2-9.1 16.4-11.9 6.3-2.8 13-4.2 19.8-4.2h78.2c2.1 0 4.3 0.4 6.2 1.3 2 0.8 3.8 2 5.3 3.5 1.6 1.5 2.8 3.3 3.6 5.3 0.8 2 1.2 4.1 1.2 6.2v12.5c0 22.8-16.2 38.6-28.4 48q-0.6 0.4-1.1 0.9-0.5 0.4-1 0.9-0.4 0.5-0.9 1-0.4 0.5-0.8 1.1l-0.4 0.8v0.2 0.1l0.1 0.3q0.1 0.5 1.2 1.7 0.9 1 1.9 1.9 1.1 0.9 2.2 1.7 1.1 0.8 2.3 1.5 1.1 0.7 2.4 1.3c9.1 4.5 22.8 7.8 38.8 7.8 16.1 0 29.8-3.3 38.9-7.8q1.2-0.6 2.4-1.3 1.2-0.7 2.3-1.5 1.1-0.8 2.1-1.7 1.1-0.9 2-1.9 0.2-0.2 0.4-0.4 0.2-0.3 0.3-0.5 0.2-0.3 0.3-0.6 0.2-0.2 0.3-0.5v-0.3l-0.4-0.8q-0.4-0.6-0.8-1.1-0.4-0.5-0.9-1-0.5-0.5-1-0.9-0.5-0.5-1.1-0.9c-12.2-9.4-28.4-25.2-28.4-48v-12.5c0-2.1 0.4-4.2 1.2-6.2 0.8-2 2-3.8 3.6-5.3 1.5-1.5 3.3-2.7 5.2-3.5 2-0.9 4.1-1.3 6.3-1.3h78.1c6.9 0 13.6 1.4 19.9 4.2 6.2 2.8 11.8 6.8 16.4 11.9 4.6 5 8 11 10.2 17.5 2.1 6.5 2.9 13.3 2.3 20.1l-8 93.3h7.8c6.3 0 13.7-4.8 22-15.7 6.8-8.9 17.2-17 30.8-17 18.5 0 30.9 14.6 37.6 28.2 7.3 14.5 11.3 33.5 11.3 53.5 0 20-4 39-11.3 53.5-6.7 13.6-19.1 28.2-37.6 28.2-13.6 0-24-8.1-30.8-17-8.3-10.9-15.7-15.7-22-15.7h-7.8l8 93.3c0.6 6.8-0.2 13.6-2.3 20.1-2.2 6.5-5.6 12.5-10.2 17.5-4.6 5.1-10.2 9.1-16.4 11.9-6.3 2.8-13 4.2-19.9 4.2h-78.1c-2.2 0-4.3-0.4-6.3-1.2-2-0.9-3.8-2.1-5.3-3.6-1.5-1.5-2.7-3.3-3.5-5.3-0.8-2-1.2-4.1-1.2-6.2v-12.5c0-22.7 16.2-38.6 28.4-48q0.6-0.4 1.1-0.8 0.5-0.5 0.9-1 0.5-0.4 1-1 0.4-0.5 0.8-1l0.4-0.9v-0.2-0.1q-0.1-0.2-0.3-0.5-0.1-0.3-0.2-0.6-0.2-0.2-0.4-0.5-0.2-0.2-0.4-0.4-0.9-1-2-1.9-1-0.9-2.1-1.7-1.1-0.8-2.3-1.5-1.2-0.7-2.4-1.3c-9.2-4.5-22.9-7.8-38.9-7.8-16 0-29.7 3.3-38.8 7.8q-1.2 0.6-2.4 1.3-1.2 0.7-2.3 1.5-1.1 0.8-2.2 1.7-1 0.9-1.9 1.9-0.2 0.2-0.4 0.5-0.2 0.2-0.4 0.5-0.1 0.2-0.3 0.5-0.1 0.3-0.2 0.5v0.1 0.2l0.4 0.9c0.5 0.8 1.6 2.2 3.8 3.8 12.2 9.4 28.4 25.3 28.4 48v12.5c0 2.1-0.4 4.2-1.2 6.2-0.8 2-2 3.8-3.6 5.3-1.5 1.5-3.3 2.7-5.3 3.6-1.9 0.8-4.1 1.2-6.2 1.2h-78.2c-6.8 0-13.5-1.4-19.8-4.2-6.2-2.8-11.8-6.8-16.4-11.9-4.6-5-8.1-11-10.2-17.5-2.2-6.5-2.9-13.3-2.3-20.1l8-93.3h-7.8c-6.3 0-13.7 4.8-22 15.7-6.9 8.9-17.2 17-30.8 17-18.5 0-30.9-14.6-37.6-28.2-7.3-14.5-11.3-33.5-11.3-53.5 0-20 4-39 11.3-53.5 6.7-13.6 19.1-28.2 37.6-28.2 13.6 0 23.9 8.1 30.8 17 8.3 10.9 15.7 15.7 22 15.7h7.8zm48.7-21.1c-2.3 0-4.5 0.5-6.6 1.4-2.1 1-4 2.3-5.5 4-1.5 1.7-2.7 3.7-3.4 5.9-0.7 2.1-1 4.4-0.7 6.7v0.2l9.5 111.1c0.1 2.3-0.1 4.5-0.9 6.7-0.7 2.1-1.9 4.1-3.4 5.7-1.5 1.7-3.4 3-5.4 4-2.1 0.9-4.3 1.3-6.6 1.3h-25.5c-22.7 0-38.6-16.2-48-28.4q-0.4-0.6-0.8-1.1-0.4-0.5-0.9-1-0.5-0.5-1-0.9-0.6-0.4-1.1-0.8l-0.8-0.4h-0.2-0.1q-0.3 0.1-0.6 0.2-0.3 0.2-0.5 0.3-0.3 0.2-0.5 0.4-0.3 0.1-0.5 0.3-1 1-1.9 2-0.9 1.1-1.7 2.2-0.8 1.1-1.4 2.3-0.7 1.1-1.3 2.4c-4.6 9.1-7.8 22.9-7.8 38.9 0 16 3.2 29.8 7.8 38.8 2.3 4.6 4.6 7.4 6.3 8.9q0.2 0.2 0.5 0.4 0.2 0.2 0.5 0.3 0.3 0.2 0.5 0.3 0.3 0.2 0.6 0.3h0.1l0.2-0.1 0.8-0.4q0.5-0.3 1.1-0.8 0.5-0.4 1-0.9 0.5-0.4 0.9-1 0.4-0.5 0.8-1c9.4-12.3 25.3-28.5 48-28.5h25.5c2.3 0 4.5 0.5 6.6 1.4 2 0.9 3.9 2.2 5.4 3.9 1.5 1.7 2.7 3.6 3.4 5.8 0.8 2.1 1 4.4 0.9 6.6l-9.5 111.3c-0.2 2.3 0 4.6 0.7 6.8 0.7 2.1 1.9 4.1 3.4 5.8 1.5 1.7 3.4 3.1 5.5 4 2.1 0.9 4.3 1.4 6.6 1.4h61.3c-1.6-5.4-6.4-11.5-15.1-18.2-9-6.9-17-17.2-17-30.8 0-18.6 14.6-30.9 28.1-37.7 14.6-7.3 33.5-11.3 53.5-11.3 20 0 38.9 4 53.5 11.3 13.5 6.8 28.1 19.1 28.1 37.7 0 13.6-8 23.9-17 30.8-8.7 6.7-13.5 12.7-15.1 18.2h61.3c2.3 0 4.5-0.5 6.6-1.4 2.1-0.9 4-2.3 5.5-4 1.5-1.7 2.7-3.7 3.4-5.8 0.7-2.2 1-4.5 0.7-6.8v-0.2l-9.5-111.1c-0.1-2.2 0.1-4.5 0.9-6.6 0.7-2.2 1.9-4.1 3.4-5.8 1.5-1.7 3.4-3 5.4-3.9 2.1-0.9 4.3-1.4 6.6-1.4h25.5c22.7 0 38.6 16.2 48 28.5 1.6 2.1 2.9 3.2 3.8 3.7l0.8 0.4 0.2 0.1h0.1q0.3-0.1 0.6-0.3 0.3-0.1 0.5-0.3 0.3-0.1 0.5-0.3 0.3-0.2 0.5-0.4 1-0.9 1.9-2 0.9-1 1.7-2.1 0.8-1.1 1.4-2.3 0.7-1.2 1.3-2.4c4.6-9.2 7.8-22.9 7.8-38.9 0-16.1-3.2-29.8-7.8-38.9q-0.6-1.2-1.3-2.4-0.6-1.2-1.4-2.3-0.8-1.1-1.7-2.2-0.9-1-1.9-2-0.2-0.2-0.5-0.3-0.2-0.2-0.5-0.4-0.2-0.1-0.5-0.3-0.3-0.1-0.6-0.2h-0.1-0.2l-0.8 0.4q-0.5 0.4-1.1 0.8-0.5 0.4-1 0.9-0.5 0.5-0.9 1-0.4 0.5-0.8 1.1c-9.4 12.2-25.3 28.4-48 28.4h-25.5c-2.3 0-4.5-0.4-6.6-1.3-2-1-3.9-2.3-5.4-4-1.5-1.6-2.7-3.6-3.4-5.7-0.8-2.2-1-4.4-0.9-6.7l9.5-111.3c0.2-2.3 0-4.6-0.7-6.7-0.7-2.2-1.9-4.2-3.4-5.9-1.5-1.7-3.4-3-5.5-3.9-2.1-1-4.3-1.5-6.6-1.5h-61.3c1.6 5.5 6.4 11.5 15.1 18.2 9 6.9 17 17.3 17 30.8 0 18.6-14.6 31-28.1 37.7-14.6 7.3-33.5 11.3-53.5 11.3-20 0-38.9-4-53.5-11.3-13.5-6.7-28.1-19.1-28.1-37.7 0-13.5 8-23.9 17-30.8 8.7-6.7 13.5-12.7 15.1-18.2z"/><path fill-rule="evenodd" class="a" d="m689.4 40.9c60 25.1 114.4 61.7 160.3 108 45.9 46.3 82.3 101.2 107.2 161.6 24.8 60.5 37.6 125.2 37.6 190.7v597.7c0 132.2-52.1 258.9-144.8 352.3-92.7 93.4-218.4 145.9-349.5 145.9-131 0-256.7-52.5-349.4-145.9-92.7-93.4-144.8-220.1-144.8-352.3v-597.7c0-65.5 12.8-130.2 37.6-190.7 24.9-60.4 61.3-115.3 107.2-161.6 45.9-46.3 100.3-82.9 160.3-108 60-25 124.2-37.9 189.1-37.9 65 0 129.2 12.9 189.2 37.9zm206.2 460.3c0-105.7-41.6-207.1-115.8-281.8-74.1-74.8-174.7-116.8-279.6-116.8-104.8 0-205.4 42-279.5 116.8-74.2 74.7-115.9 176.1-115.9 281.8v597.7c0 105.7 41.7 207.1 115.9 281.8 74.1 74.8 174.7 116.8 279.5 116.8 104.9 0 205.5-42 279.6-116.8 74.2-74.7 115.8-176.1 115.8-281.8zm-395.4-199.2c6.5 0 13 1.3 19 3.8 6 2.5 11.4 6.1 16 10.8 4.6 4.6 8.2 10.1 10.7 16.1 2.5 6.1 3.8 12.6 3.8 19.1v199.3c0 13.2-5.2 25.8-14.5 35.2-9.3 9.3-21.8 14.6-35 14.6-13.1 0-25.6-5.3-34.9-14.6-9.3-9.4-14.5-22-14.5-35.2v-199.3c0-6.5 1.3-13 3.8-19.1 2.5-6 6.1-11.5 10.7-16.1 4.6-4.7 10-8.3 16-10.8 6-2.5 12.5-3.8 18.9-3.8z"/></svg>