<svg version="1.2" xmlns="http://www.w3.org/2000/svg" viewBox="0 0 1080 700" width="1080" height="700"><style></style><path fill-rule="evenodd" d="m192.9 407.6c-0.3-2.6 0-5.3 0.9-7.7 0.8-2.5 2.1-4.8 3.9-6.8 1.7-1.9 3.9-3.4 6.3-4.5 2.4-1.1 4.9-1.6 7.6-1.6h29.9q1.2 0 2.4 0.5 1.1 0.5 2 1.3 0.9 0.9 1.4 2.1 0.4 1.1 0.4 2.4v4.7c0 8.7-6.2 14.8-10.8 18.4q-0.3 0.1-0.5 0.3-0.1 0.2-0.3 0.4-0.2 0.2-0.4 0.4-0.1 0.1-0.3 0.4l-0.1 0.3-0.1 0.1 0.1 0.1q0 0.2 0.4 0.7 0.4 0.4 0.8 0.7 0.4 0.3 0.8 0.6 0.4 0.3 0.9 0.6 0.4 0.3 0.9 0.5c3.5 1.8 8.8 3 14.9 3 6.2 0 11.4-1.2 14.9-3q0.5-0.2 0.9-0.5 0.5-0.2 0.9-0.6 0.4-0.3 0.8-0.6 0.4-0.3 0.8-0.7 0-0.1 0.1-0.2 0.1-0.1 0.1-0.2 0.1-0.1 0.2-0.2 0-0.1 0-0.2v-0.1l-0.1-0.3q-0.1-0.3-0.3-0.4-0.2-0.2-0.4-0.4-0.1-0.2-0.3-0.4-0.2-0.2-0.4-0.3c-4.7-3.6-10.9-9.7-10.9-18.4v-4.7q0-1.3 0.4-2.4 0.5-1.2 1.4-2.1 0.9-0.8 2-1.3 1.2-0.5 2.4-0.5h29.9c2.7 0 5.2 0.5 7.6 1.6 2.4 1.1 4.6 2.6 6.3 4.5 1.8 2 3.1 4.3 3.9 6.8 0.9 2.4 1.2 5.1 0.9 7.7l-3 35.7h2.9c2.5 0 5.3-1.9 8.5-6 2.6-3.5 6.6-6.5 11.7-6.5 7.2 0 11.9 5.5 14.5 10.7 2.8 5.6 4.3 12.8 4.3 20.5 0 7.7-1.5 14.9-4.3 20.5-2.6 5.2-7.3 10.8-14.5 10.8-5.1 0-9.1-3.1-11.7-6.5-3.2-4.2-6-6-8.5-6h-2.9l3 35.6c0.3 2.6 0 5.3-0.9 7.7-0.8 2.5-2.1 4.8-3.9 6.8-1.7 1.9-3.9 3.4-6.3 4.5-2.4 1.1-4.9 1.6-7.6 1.6h-29.9q-1.2 0-2.4-0.5-1.1-0.5-2-1.3-0.9-0.9-1.4-2.1-0.4-1.1-0.5-2.3v-4.8c0-8.7 6.3-14.8 11-18.4q0.2-0.1 0.4-0.3 0.1-0.2 0.3-0.4 0.2-0.2 0.4-0.4 0.1-0.1 0.3-0.4l0.1-0.3v-0.1q0-0.1 0-0.2-0.1-0.1-0.2-0.2 0-0.1-0.1-0.2-0.1-0.1-0.1-0.2-0.4-0.4-0.8-0.7-0.4-0.3-0.8-0.7-0.4-0.3-0.9-0.5-0.4-0.3-0.9-0.5c-3.5-1.7-8.8-3-14.9-3-6.1 0-11.4 1.3-14.9 3q-0.5 0.2-0.9 0.5-0.5 0.2-0.9 0.6-0.4 0.3-0.8 0.6-0.4 0.3-0.8 0.7 0 0.1-0.1 0.2-0.1 0.1-0.1 0.2-0.1 0.1-0.2 0.2 0 0.1-0.1 0.2v0.1h0.1l0.1 0.3c0.2 0.4 0.6 0.9 1.5 1.5 4.6 3.6 10.8 9.7 10.8 18.4v4.8q0 1.2-0.4 2.3-0.5 1.2-1.4 2.1-0.9 0.8-2 1.3-1.2 0.5-2.4 0.5h-29.9c-2.7 0-5.2-0.5-7.6-1.6-2.4-1.1-4.6-2.6-6.3-4.5-1.8-2-3.1-4.3-3.9-6.8-0.9-2.4-1.2-5.1-0.9-7.7l3-35.6h-2.9c-2.5 0-5.3 1.8-8.5 6-2.6 3.4-6.6 6.5-11.8 6.5-7 0-11.8-5.6-14.4-10.8-2.8-5.6-4.3-12.8-4.3-20.5 0-7.7 1.5-14.9 4.3-20.5 2.6-5.2 7.4-10.7 14.4-10.7 5.2 0 9.2 3 11.8 6.5 3.2 4.1 6 6 8.5 6h3zm18.6-8.1q-1.3 0-2.5 0.5-1.2 0.6-2.1 1.5-0.9 1-1.3 2.3-0.4 1.2-0.3 2.6v0.1l3.6 42.5q0.1 1.3-0.3 2.5-0.4 1.2-1.3 2.2-0.9 1-2.1 1.5-1.2 0.5-2.5 0.5h-9.8c-8.7 0-14.8-6.2-18.3-10.9q-0.2-0.2-0.4-0.4-0.1-0.2-0.3-0.3-0.2-0.2-0.4-0.4-0.2-0.2-0.4-0.3l-0.3-0.1-0.1-0.1q-0.1 0.1-0.3 0.1-0.1 0.1-0.2 0.1-0.1 0.1-0.2 0.2-0.1 0-0.1 0.1-0.4 0.4-0.8 0.8-0.3 0.4-0.6 0.8-0.3 0.4-0.6 0.9-0.2 0.4-0.4 0.9c-1.8 3.5-3 8.8-3 14.9 0 6.1 1.2 11.4 3 14.9 0.8 1.7 1.7 2.8 2.4 3.4q0.1 0 0.2 0.1 0 0.1 0.1 0.1 0.1 0.1 0.2 0.1 0.2 0.1 0.3 0.1h0.1l0.3-0.1q0.2-0.2 0.4-0.3 0.2-0.2 0.4-0.4 0.2-0.2 0.3-0.4 0.2-0.2 0.4-0.4c3.5-4.6 9.6-10.9 18.3-10.9h9.8q1.3 0 2.5 0.6 1.2 0.5 2.1 1.5 0.9 0.9 1.3 2.2 0.4 1.2 0.3 2.5l-3.6 42.6q-0.1 1.3 0.3 2.6 0.4 1.2 1.3 2.2 0.9 1 2.1 1.5 1.2 0.6 2.5 0.6h23.5c-0.6-2.1-2.4-4.4-5.8-7-3.4-2.6-6.5-6.6-6.5-11.8 0-7.1 5.6-11.8 10.8-14.4 5.5-2.8 12.8-4.3 20.5-4.3 7.6 0 14.9 1.5 20.4 4.3 5.2 2.6 10.8 7.3 10.8 14.4 0 5.2-3.1 9.2-6.5 11.8-3.3 2.6-5.2 4.9-5.8 7h23.5q1.3 0 2.5-0.5 1.2-0.6 2.1-1.6 0.9-1 1.3-2.2 0.4-1.3 0.3-2.6v-0.1l-3.6-42.5q-0.1-1.3 0.3-2.5 0.4-1.3 1.3-2.2 0.9-1 2.1-1.5 1.2-0.6 2.5-0.6h9.8c8.7 0 14.8 6.3 18.3 10.9 0.7 0.9 1.2 1.3 1.5 1.5l0.3 0.1h0.1q0.1 0 0.3-0.1 0.1 0 0.2-0.1 0.1 0 0.2-0.1 0.1-0.1 0.1-0.1 0.4-0.4 0.8-0.8 0.3-0.4 0.6-0.8 0.3-0.4 0.6-0.9 0.2-0.5 0.5-0.9c1.7-3.5 3-8.8 3-14.9 0-6.1-1.3-11.4-3-14.9q-0.3-0.5-0.5-0.9-0.3-0.5-0.6-0.9-0.3-0.4-0.7-0.8-0.3-0.4-0.7-0.8-0.1-0.1-0.2-0.1 0-0.1-0.1-0.2-0.1 0-0.2-0.1-0.2 0-0.3-0.1l-0.1 0.1-0.3 0.1q-0.2 0.1-0.4 0.3-0.2 0.2-0.4 0.4-0.2 0.1-0.3 0.3-0.2 0.2-0.4 0.4c-3.6 4.7-9.6 10.9-18.3 10.9h-9.8q-1.3 0-2.5-0.5-1.2-0.5-2.1-1.5-0.9-1-1.3-2.2-0.4-1.2-0.3-2.5l3.6-42.6q0.1-1.4-0.3-2.6-0.4-1.3-1.3-2.3-0.9-0.9-2.1-1.5-1.2-0.5-2.5-0.5h-23.5c0.6 2.1 2.5 4.4 5.8 7 3.4 2.6 6.5 6.6 6.5 11.7 0 7.1-5.6 11.9-10.8 14.5-5.5 2.8-12.8 4.3-20.4 4.3-7.7 0-15-1.5-20.5-4.3-5.2-2.6-10.8-7.4-10.8-14.5 0-5.1 3.1-9.1 6.5-11.7 3.4-2.6 5.2-4.9 5.8-7z"/><path fill-rule="evenodd" d="m316.8 61.5c22.9 9.6 43.8 23.6 61.4 41.3 17.6 17.7 31.5 38.7 41 61.9 9.5 23.1 14.4 47.9 14.4 72.9v228.8c0 50.5-19.9 99-55.4 134.8-35.5 35.7-83.7 55.8-133.9 55.8-50.2 0-98.3-20.1-133.9-55.8-35.5-35.8-55.4-84.3-55.4-134.8v-228.8c0-25 4.9-49.8 14.4-72.9 9.5-23.2 23.5-44.2 41-61.9 17.6-17.7 38.5-31.7 61.5-41.3 22.9-9.6 47.6-14.5 72.4-14.5 24.9 0 49.5 4.9 72.5 14.5zm79 176.1c0-40.4-16-79.2-44.4-107.8-28.4-28.6-66.9-44.7-107.1-44.7-40.2 0-78.7 16.1-107.1 44.7-28.4 28.6-44.3 67.4-44.3 107.8v228.8c0 40.4 15.9 79.2 44.3 107.8 28.4 28.6 66.9 44.7 107.1 44.7 40.2 0 78.7-16.1 107.1-44.7 28.4-28.6 44.4-67.4 44.4-107.8zm-151.5-76.3c2.5 0 5 0.5 7.3 1.5 2.3 0.9 4.3 2.3 6.1 4.1 1.8 1.8 3.2 3.9 4.1 6.2 1 2.3 1.4 4.8 1.4 7.3v76.2c0 5.1-2 9.9-5.5 13.5-3.6 3.6-8.4 5.6-13.4 5.6-5 0-9.8-2-13.4-5.6-3.5-3.6-5.5-8.4-5.5-13.5v-76.2c0-2.5 0.5-5 1.4-7.3 1-2.3 2.4-4.4 4.1-6.2 1.8-1.8 3.9-3.2 6.2-4.1 2.3-1 4.7-1.5 7.2-1.5z"/><path  d="m594 405.2q0 3.4-1.4 6.5-1.5 2.9-4.8 5.2-3.2 2.1-8.4 3.4-5.1 1.3-12.6 1.3-4.2 0-8.3-0.6-4-0.7-7.7-1.9-3.6-1.2-6.7-2.9-3.1-1.7-5.3-3.8l4-4.8q4.6 3.9 10.6 6 6.1 2 13.4 2 8.1 0 11.4-2.2 3.4-2.3 3.4-6.2 0-3-2.6-5.1-2.7-2.1-9-4.1l-15.2-4.8q-7.5-2.4-11.4-6.1-3.8-3.7-3.8-9.5 0-3 1.4-5.7 1.4-2.8 4.4-4.9 2.9-2.1 7.5-3.3 4.6-1.3 11.1-1.3 3.9 0 7.8 0.6 3.9 0.7 7.4 1.9 3.6 1.2 6.6 2.9 3.2 1.7 5.4 3.8l-4 4.8q-4.6-3.9-10.2-5.9-5.7-2.1-13-2.1-6 0-9 2.1-3 2.1-3 5.1 0 1.7 0.6 3 0.5 1.2 1.8 2.3 1.4 1 3.5 2 2.2 0.9 5.4 1.9l15.1 4.8q7.3 2.3 11.4 6.1 4.2 3.7 4.2 9.5zm30.4 11.2q2.6 0 4.8-1 2.2-0.9 3.9-2.9 1.7-2.1 2.7-5.4 1-3.3 1-7.9 0-4.6-1-7.9-1-3.3-2.7-5.3-1.7-2.1-3.9-3-2.2-1-4.8-1-2.6 0-4.8 1-2.2 0.9-3.9 3-1.7 2-2.7 5.3-1 3.3-1 7.9 0 4.6 1 7.9 1 3.3 2.7 5.4 1.7 2 3.9 2.9 2.2 1 4.8 1zm0-39.6q5.4 0 9.8 1.5 4.6 1.5 7.8 4.3 3.2 2.8 5 7.1 1.8 4.1 1.8 9.5 0 5.4-1.8 9.6-1.8 4.2-5 7-3.2 2.8-7.8 4.4-4.4 1.4-9.8 1.4-5.4 0-9.9-1.4-4.5-1.6-7.7-4.4-3.2-2.8-5-7-1.8-4.2-1.8-9.6 0-5.4 1.8-9.5 1.8-4.3 5-7.1 3.2-2.8 7.7-4.3 4.5-1.5 9.9-1.5zm44.8-12.8v56h-11.2v-56zm11.2 39.6v-25.2h11.2v25.2q0 5.8 2.9 8.3 2.9 2.5 8.3 2.5h10.4v-36h11.2v41.6h-21.6q-11.4 0-17-4.1-5.4-4.1-5.4-12.3zm58.8 1.2v-20.8h-7.6v-5.6h7.6v-12.8h11.2v12.8h12.4v5.6h-12.4v20.8q0 3 0.6 5.2 0.8 2.1 1.9 3.4 1.2 1.3 2.7 2 1.5 0.6 3.2 0.6 2.4 0 4.6-0.7 2.3-0.8 3.8-1.7l2.4 5.2q-2.4 1.2-5.5 2-3.1 0.8-6.1 0.8-9 0-13.9-4.5-4.9-4.5-4.9-12.3zm48.4-25.6v40.8h-11.2v-40.8zm0.4-10.8q0 2.4-1.7 4.2-1.6 1.8-4.3 1.8-2.7 0-4.4-1.8-1.6-1.8-1.6-4.2 0-2.4 1.6-4.2 1.7-1.8 4.4-1.8 2.6 0 4.3 1.8 1.7 1.8 1.7 4.2zm33.6 48q2.6 0 4.8-1 2.2-0.9 3.9-2.9 1.7-2.1 2.7-5.4 1-3.3 1-7.9 0-4.6-1-7.9-1-3.3-2.7-5.3-1.7-2.1-3.9-3-2.2-1-4.8-1-2.6 0-4.8 1-2.2 0.9-3.9 3-1.7 2-2.7 5.3-1 3.3-1 7.9 0 4.6 1 7.9 1 3.3 2.7 5.4 1.7 2 3.9 2.9 2.2 1 4.8 1zm0-39.6q5.4 0 9.8 1.5 4.6 1.5 7.8 4.3 3.2 2.8 5 7.1 1.8 4.1 1.8 9.5 0 5.4-1.8 9.6-1.8 4.2-5 7-3.2 2.8-7.8 4.4-4.4 1.4-9.8 1.4-5.4 0-9.9-1.4-4.5-1.6-7.7-4.4-3.2-2.8-5-7-1.8-4.2-1.8-9.6 0-5.4 1.8-9.5 1.8-4.3 5-7.1 3.2-2.8 7.7-4.3 4.5-1.5 9.9-1.5zm77.6 18v25.2h-11.2v-25.2q0-5.8-2.9-8.2-2.9-2.6-8.3-2.6h-10.4v36h-11.2v-41.6h21.6q11.4 0 16.9 4.2 5.5 4 5.5 12.2zm20.4-7.6q0 1.8 1.6 3.4 1.7 1.5 5.6 2.6l12.4 3.6q5.8 1.7 8.9 4.6 3.1 2.8 3.1 7.4 0 2.9-1.2 5.3-1.2 2.3-3.9 4-2.7 1.7-7.1 2.6-4.3 0.9-10.6 0.9-3.3 0-6.5-0.5-3.1-0.5-6-1.3-2.8-0.8-5.1-1.9-2.3-1.1-4-2.3l3.2-4.8q3.4 2.1 7.8 3.7 4.6 1.5 10.6 1.5 6 0 8.4-1.6 2.4-1.6 2.4-4 0-1.8-1.7-3.3-1.7-1.5-5.9-2.7l-12.4-3.6q-5.1-1.5-8.4-4.3-3.2-2.9-3.2-7.7 0-2.6 1.1-4.7 1.2-2.3 3.7-3.9 2.5-1.6 6.3-2.4 3.9-1 9.3-1 6.6 0 12 1.8 5.4 1.8 8.8 4.2l-3.2 4.8q-3.3-2.1-7.4-3.6-4.2-1.6-10.2-1.6-4.2 0-6.3 1.4-2.1 1.3-2.1 3.4z"/><path  d="m493.5 338q4.9 0 8.8-1.3 4-1.4 6.8-4.2 2.8-2.9 4.3-7.3 1.6-4.5 1.6-10.7v-41.5h14.5v41.5q0 15.4-9.4 23-9.4 7.5-26.6 7.5-17.3 0-26.7-7.5-9.3-7.6-9.3-23v-41.5h14.5v41.5q0 6.2 1.5 10.7 1.6 4.4 4.4 7.3 2.8 2.8 6.7 4.2 4 1.3 8.9 1.3zm71.5-65l26 60h1l26-60h21.5v70h-14.5v-56h-1l-24 56h-17l-24-56h-1v56h-14.5v-70zm88.5 0h33q9 0 16.3 2.3 7.4 2.2 12.6 6.6 5.3 4.4 8.2 11 2.9 6.5 2.9 15.1 0 8.6-2.9 15.2-2.9 6.5-8.2 10.9-5.2 4.4-12.6 6.7-7.3 2.2-16.3 2.2h-33zm33 7.5h-18.5v55h18.5q5.1 0 9.5-1.5 4.5-1.6 7.8-4.9 3.3-3.4 5.2-8.6 2-5.2 2-12.5 0-7.3-2-12.5-1.9-5.2-5.2-8.5-3.3-3.4-7.8-4.9-4.4-1.6-9.5-1.6zm155.5-7.5v7.5h-27v62.5h-14.5v-62.5h-27v-7.5zm26 65.5q3.2 0 6-1.2 2.8-1.2 4.9-3.7 2.1-2.6 3.3-6.7 1.3-4.1 1.3-9.9 0-5.8-1.3-9.9-1.2-4.1-3.3-6.6-2.1-2.6-4.9-3.8-2.8-1.2-6-1.2-3.2 0-6 1.2-2.8 1.2-4.9 3.8-2.1 2.5-3.4 6.6-1.2 4.1-1.2 9.9 0 5.8 1.2 9.9 1.3 4.1 3.4 6.7 2.1 2.5 4.9 3.7 2.8 1.2 6 1.2zm0-49.5q6.7 0 12.3 1.9 5.7 1.8 9.7 5.4 4 3.5 6.2 8.8 2.3 5.2 2.3 11.9 0 6.8-2.3 12-2.2 5.2-6.2 8.8-4 3.5-9.7 5.4-5.6 1.8-12.3 1.8-6.8 0-12.4-1.8-5.6-1.9-9.6-5.4-4-3.6-6.3-8.8-2.2-5.2-2.2-12 0-6.7 2.2-11.9 2.3-5.3 6.3-8.8 4-3.6 9.6-5.4 5.6-1.9 12.4-1.9zm70 49.5q3.2 0 6-1.2 2.8-1.2 4.9-3.7 2.1-2.6 3.3-6.7 1.3-4.1 1.3-9.9 0-5.8-1.3-9.9-1.2-4.1-3.3-6.6-2.1-2.6-4.9-3.8-2.8-1.2-6-1.2-3.2 0-6 1.2-2.8 1.2-4.9 3.8-2.1 2.5-3.4 6.6-1.2 4.1-1.2 9.9 0 5.8 1.2 9.9 1.3 4.1 3.4 6.7 2.1 2.5 4.9 3.7 2.8 1.2 6 1.2zm0-49.5q6.7 0 12.3 1.9 5.7 1.8 9.7 5.4 4 3.5 6.2 8.8 2.3 5.2 2.3 11.9 0 6.8-2.3 12-2.2 5.2-6.2 8.8-4 3.5-9.7 5.4-5.6 1.8-12.3 1.8-6.8 0-12.4-1.8-5.6-1.9-9.6-5.4-4-3.6-6.3-8.8-2.2-5.2-2.2-12 0-6.7 2.2-11.9 2.3-5.3 6.3-8.8 4-3.6 9.6-5.4 5.6-1.9 12.4-1.9zm56-16v70h-14v-70zm26 29q0 2.3 2 4.2 2.1 1.9 7 3.3l15.5 4.5q7.2 2.1 11.1 5.7 3.9 3.6 3.9 9.3 0 3.6-1.5 6.6-1.5 2.9-4.9 5-3.4 2.1-8.8 3.3-5.4 1.1-13.3 1.1-4.1 0-8.1-0.6-3.9-0.6-7.5-1.6-3.5-1.1-6.4-2.4-2.9-1.4-5-2.9l4-6q4.2 2.6 9.8 4.6 5.7 1.9 13.2 1.9 7.5 0 10.5-2 3-2 3-5 0-2.3-2.1-4.1-2.1-1.9-7.4-3.4l-15.5-4.5q-6.4-1.9-10.5-5.4-4-3.6-4-9.6 0-3.2 1.4-5.9 1.5-2.8 4.6-4.8 3.1-2 7.9-3.1 4.8-1.2 11.6-1.2 8.3 0 15 2.3 6.8 2.2 11 5.2l-4 6q-4.1-2.6-9.3-4.5-5.2-2-12.7-2-5.3 0-7.9 1.7-2.6 1.7-2.6 4.3z"/></svg>